<svg width="1200" height="630" viewBox="0 0 1200 630" fill="none" xmlns="http://www.w3.org/2000/svg">
  <defs>
    <linearGradient id="bg" x1="76" y1="48" x2="1128" y2="598" gradientUnits="userSpaceOnUse">
      <stop stop-color="#EEF6EF"/>
      <stop offset="0.45" stop-color="#E6EFF8"/>
      <stop offset="1" stop-color="#07111C"/>
    </linearGradient>
    <linearGradient id="panelLight" x1="116" y1="122" x2="620" y2="470" gradientUnits="userSpaceOnUse">
      <stop stop-color="#FFFFFF"/>
      <stop offset="1" stop-color="#F4FAF6"/>
    </linearGradient>
    <linearGradient id="panelDark" x1="730" y1="80" x2="1134" y2="564" gradientUnits="userSpaceOnUse">
      <stop stop-color="#111A27"/>
      <stop offset="1" stop-color="#060B13"/>
    </linearGradient>
    <linearGradient id="accentBlue" x1="0" y1="0" x2="1" y2="1">
      <stop stop-color="#CDE9FF"/>
      <stop offset="1" stop-color="#58B8FF"/>
    </linearGradient>
    <linearGradient id="accentGreen" x1="0" y1="0" x2="1" y2="1">
      <stop stop-color="#DDF7E4"/>
      <stop offset="1" stop-color="#2AA95D"/>
    </linearGradient>
    <linearGradient id="accentGold" x1="0" y1="0" x2="1" y2="1">
      <stop stop-color="#FFE7BE"/>
      <stop offset="1" stop-color="#F2A94A"/>
    </linearGradient>
    <filter id="shadow" x="50" y="40" width="1100" height="560" filterUnits="userSpaceOnUse" color-interpolation-filters="sRGB">
      <feDropShadow dx="0" dy="18" stdDeviation="24" flood-color="#06111C" flood-opacity="0.18"/>
    </filter>
    <filter id="glow" x="646" y="18" width="460" height="420" filterUnits="userSpaceOnUse" color-interpolation-filters="sRGB">
      <feGaussianBlur stdDeviation="32"/>
    </filter>
  </defs>

  <rect width="1200" height="630" rx="32" fill="url(#bg)"/>
  <circle cx="980" cy="116" r="122" fill="#5FB7FF" fill-opacity="0.16" filter="url(#glow)"/>
  <circle cx="1064" cy="490" r="140" fill="#17385A" fill-opacity="0.34"/>

  <g opacity="0.18">
    <path d="M0 96H1200" stroke="#9AB7DA"/>
    <path d="M0 156H1200" stroke="#9AB7DA"/>
    <path d="M0 216H1200" stroke="#9AB7DA"/>
    <path d="M0 276H1200" stroke="#9AB7DA"/>
    <path d="M0 336H1200" stroke="#9AB7DA"/>
    <path d="M0 396H1200" stroke="#9AB7DA"/>
    <path d="M0 456H1200" stroke="#9AB7DA"/>
    <path d="M0 516H1200" stroke="#9AB7DA"/>
    <path d="M96 0V630" stroke="#9AB7DA"/>
    <path d="M196 0V630" stroke="#9AB7DA"/>
    <path d="M296 0V630" stroke="#9AB7DA"/>
    <path d="M396 0V630" stroke="#9AB7DA"/>
    <path d="M496 0V630" stroke="#9AB7DA"/>
    <path d="M596 0V630" stroke="#9AB7DA"/>
    <path d="M696 0V630" stroke="#9AB7DA"/>
    <path d="M796 0V630" stroke="#9AB7DA"/>
    <path d="M896 0V630" stroke="#9AB7DA"/>
    <path d="M996 0V630" stroke="#9AB7DA"/>
    <path d="M1096 0V630" stroke="#9AB7DA"/>
  </g>

  <g filter="url(#shadow)">
    <rect x="86" y="100" width="516" height="348" rx="28" fill="url(#panelLight)"/>
    <rect x="632" y="64" width="494" height="502" rx="34" fill="url(#panelDark)"/>
  </g>

  <text x="118" y="82" fill="#30485A" font-family="'IBM Plex Sans', 'Segoe UI', sans-serif" font-size="34" font-weight="700" letter-spacing="0.04em">CodexUsage</text>

  <g>
    <text x="118" y="142" fill="#102A1D" font-family="'IBM Plex Sans', 'Segoe UI', sans-serif" font-size="28" font-weight="700">Overview</text>
    <text x="118" y="172" fill="#5E7667" font-family="'IBM Plex Sans', 'Segoe UI', sans-serif" font-size="16">Updates every second from app-server and local session logs.</text>

    <rect x="118" y="196" width="110" height="78" rx="18" fill="#FFFFFF" stroke="#D7E6D8"/>
    <rect x="242" y="196" width="110" height="78" rx="18" fill="#FFFFFF" stroke="#D7E6D8"/>
    <rect x="366" y="196" width="110" height="78" rx="18" fill="#FFFFFF" stroke="#D7E6D8"/>
    <rect x="490" y="196" width="84" height="78" rx="18" fill="#FFFFFF" stroke="#D7E6D8"/>

    <text x="136" y="222" fill="#5E7667" font-family="'IBM Plex Mono', ui-monospace, monospace" font-size="13">TODAY</text>
    <text x="136" y="254" fill="#11311F" font-family="'IBM Plex Sans', 'Segoe UI', sans-serif" font-size="28" font-weight="700">182,449</text>
    <text x="260" y="222" fill="#5E7667" font-family="'IBM Plex Mono', ui-monospace, monospace" font-size="13">WEEK</text>
    <text x="260" y="254" fill="#11311F" font-family="'IBM Plex Sans', 'Segoe UI', sans-serif" font-size="28" font-weight="700">1.28M</text>
    <text x="384" y="222" fill="#5E7667" font-family="'IBM Plex Mono', ui-monospace, monospace" font-size="13">SESSION</text>
    <text x="384" y="254" fill="#0F7A42" font-family="'IBM Plex Sans', 'Segoe UI', sans-serif" font-size="28" font-weight="700">42.7%</text>
    <text x="508" y="222" fill="#5E7667" font-family="'IBM Plex Mono', ui-monospace, monospace" font-size="13">LIVE</text>
    <text x="508" y="254" fill="#0F7A42" font-family="'IBM Plex Sans', 'Segoe UI', sans-serif" font-size="28" font-weight="700">OK</text>

    <rect x="118" y="300" width="220" height="118" rx="20" fill="#FFFFFF" stroke="#D7E6D8"/>
    <rect x="350" y="300" width="224" height="118" rx="20" fill="#FFFFFF" stroke="#D7E6D8"/>

    <text x="138" y="328" fill="#18322A" font-family="'IBM Plex Sans', 'Segoe UI', sans-serif" font-size="20" font-weight="700">Session Window</text>
    <rect x="138" y="346" width="180" height="12" rx="6" fill="#D9F1E3"/>
    <rect x="138" y="346" width="78" height="12" rx="6" fill="url(#accentGreen)"/>
    <text x="138" y="383" fill="#5E7667" font-family="'IBM Plex Mono', ui-monospace, monospace" font-size="13">RESETS</text>
    <text x="138" y="404" fill="#153022" font-family="'IBM Plex Sans', 'Segoe UI', sans-serif" font-size="22" font-weight="700">2h 14m</text>

    <text x="370" y="328" fill="#18322A" font-family="'IBM Plex Sans', 'Segoe UI', sans-serif" font-size="20" font-weight="700">Weekly Window</text>
    <rect x="370" y="346" width="184" height="12" rx="6" fill="#DCEBFF"/>
    <rect x="370" y="346" width="122" height="12" rx="6" fill="url(#accentBlue)"/>
    <text x="370" y="383" fill="#5E7667" font-family="'IBM Plex Mono', ui-monospace, monospace" font-size="13">ESTIMATED COST</text>
    <text x="370" y="404" fill="#153022" font-family="'IBM Plex Sans', 'Segoe UI', sans-serif" font-size="22" font-weight="700">$18.42</text>
  </g>

  <g>
    <text x="672" y="118" fill="#9BC8F5" font-family="'IBM Plex Mono', ui-monospace, monospace" font-size="14" letter-spacing="0.16em">ACTIVE MODEL</text>
    <text x="672" y="162" fill="#EEF4FF" font-family="'IBM Plex Sans', 'Segoe UI', sans-serif" font-size="42" font-weight="700">GPT-5.3 Codex</text>
    <text x="672" y="248" fill="#58B8FF" font-family="'IBM Plex Sans', 'Segoe UI', sans-serif" font-size="74" font-weight="700">1,284,093</text>
    <text x="675" y="292" fill="#D8E9FF" font-family="'IBM Plex Sans', 'Segoe UI', sans-serif" font-size="30" font-weight="600">$18.42</text>
    <text x="676" y="328" fill="#8199B5" font-family="'IBM Plex Sans', 'Segoe UI', sans-serif" font-size="20">Reset in 3d 5h 12m</text>

    <rect x="670" y="370" width="414" height="140" rx="24" fill="#09121D" stroke="#243345"/>
    <text x="702" y="402" fill="#9BC8F5" font-family="'IBM Plex Mono', ui-monospace, monospace" font-size="14" letter-spacing="0.1em">RECORDER VIEW</text>
    <text x="702" y="426" fill="#7E94AF" font-family="'IBM Plex Sans', 'Segoe UI', sans-serif" font-size="16">Canvas stream for Picture in Picture</text>
    <rect x="702" y="444" width="350" height="60" rx="18" fill="#0D1725" stroke="#2C4057"/>
    <path d="M720 484C748 456 784 452 826 466C870 481 910 482 944 460C978 438 1016 440 1044 462" stroke="#58B8FF" stroke-width="5" stroke-linecap="round"/>
    <circle cx="821" cy="466" r="6" fill="#58B8FF"/>
    <circle cx="941" cy="461" r="6" fill="#F2A94A"/>

    <rect x="783" y="518" width="188" height="38" rx="19" fill="url(#accentBlue)"/>
    <text x="835" y="542" fill="#04111D" font-family="'IBM Plex Sans', 'Segoe UI', sans-serif" font-size="16" font-weight="700">Open PiP</text>
  </g>

  <g>
    <rect x="92" y="468" width="520" height="92" rx="22" fill="#0A1118" fill-opacity="0.92"/>
    <text x="118" y="502" fill="#7CC4FF" font-family="'IBM Plex Mono', ui-monospace, monospace" font-size="16">$ bun cli week --range</text>
    <text x="118" y="534" fill="#E7F0FF" font-family="'IBM Plex Mono', ui-monospace, monospace" font-size="15">Weekly - account@example.com</text>
    <text x="118" y="554" fill="#9AB0C8" font-family="'IBM Plex Mono', ui-monospace, monospace" font-size="14">Weekly tokens: 1,284,093   Weekly used: 68.4%   Resets: 3d 5h</text>
  </g>
</svg>
